<?xml version="1.0" encoding="UTF-8"?>
<svg id="Layer_1" xmlns="http://www.w3.org/2000/svg" version="1.1" viewBox="0 0 500 414.2">
  <!-- Generator: Adobe Illustrator 30.4.0, SVG Export Plug-In . SVG Version: 2.1.4 Build 226)  -->
  <defs>
    <style>
      .st0 {
        stroke: #fff;
        stroke-width: 1.86px;
      }

      .st0, .st1 {
        fill: #1a2fff;
      }
    </style>
  </defs>
  <path class="st1" d="M231.6,146.5v96.3c0,14.6-3.7,26.4-11.1,35.4-8.1,10.1-19.6,15.1-34.4,15.1-13.1,0-23.6-2.4-31.5-7.2-7.8-4.8-11.7-10.8-11.7-18,0-6,2-10.7,6.1-14.2,3.5-2.9,7.9-4.6,13.2-4.7,5.1-.2,9.5,1.2,13.3,4.2,3.7,2.9,5.6,6.8,5.6,11.7,0,3.9-1.8,8.5-5.3,13.9-.5.8-.8,1.4-.8,2,0,3,2.5,4.5,7.7,4.5,2.5,0,3.8-2.9,3.8-8.6v-98.1c0-3.3-1.5-6.4-4.5-9.2-3-2.7-6.6-4-10.9-4h-6.1v-7.2c13.1,0,24.3-.9,33.7-2.7,8-1.5,19.1-4.6,32.9-9.2"/>
  <path class="st1" d="M339.4,242.1v7.2h-89.3v-7.2c14.8,0,22.3-5.3,22.3-16v-62.8c0-3.7-1.5-6.9-4.5-9.4-3-2.6-6.7-3.8-11.1-3.8h-8v-7.2c22,0,45-4,68.9-11.9v95.2c0,10.5,7.3,15.9,21.7,15.9"/>
  <path class="st1" d="M105.4,162.8c-4.6,5.5-11.3,8.3-20,8.3h-19.6v-40.1c0-4.7,1.2-8.8,3.6-12.1,2.7-4.1,6.5-6.1,11.4-6.1h8.3c6.2,0,11.4,3.2,15.5,9.5,4.3,6.5,6.4,13.7,6.4,21.7.1,7.6-1.8,13.9-5.6,18.8M130.2,174.5c8.7-4.4,14.6-8.2,17.9-11.3,5.2-5.1,7.9-11.7,7.9-19.8,0-12.3-5.5-21.7-16.5-28.2s-26.1-9.7-45.5-9.7H1.4v7.3h8.1c8.3,0,12.4,6.1,12.4,18.2v99.5c0,9-5,13.6-15,13.6H0v7.1h100.6c40.2,0,60.6-14,61.2-42.1.4-15-10.2-26.5-31.6-34.6M107.7,234.1c-4.6,6.9-10.1,10.3-16.7,10.3h-8.8c-5.1,0-9.1-1.3-11.9-3.9-3-2.5-4.5-5.9-4.5-10.1v-52.1h19.6c10.3,0,18.1,3.3,23.4,9.9,4.6,5.8,6.7,13.2,6.4,22.2-.4,9-2.8,16.8-7.5,23.7"/>
  <path class="st1" d="M429.7,219.6l5.3,2.9c-16.8,20.2-33.2,30.4-49.3,30.4-13.8,0-23.2-2.2-28.3-6.8-6.1-5.2-9-15.3-9-30.1v-72.3h-19.6v-7.4c12.6,0,22.1-3.5,28.6-10.6,5.8-6,10-15.7,12.7-29h23.1v39.6h36.5v7.4h-36.5v82.8c0,8.6,2.5,12.7,7.4,12.6,5.2-.1,14.9-6.6,29.1-19.5"/>
  <path class="st1" d="M116.7,288.1c-35.5,45.2-58.9,87.3-49.7,109.6,2.7,6.6,9.4,14.4,25.7,14.4,51.9,0,177-84.4,284.7-192.1,67.9-67.9,135.2-153,120.6-188.4-2.7-6.6-9.4-14.4-25.6-14.4-28.8,0-80.1,25.9-163.6,83.3l-8.9-15.4C383.4,27.7,434.7,1.8,463.5,1.8c16.3,0,22.9,7.8,25.7,14.4,14.6,35.4-52.7,120.5-120.6,188.4-107.7,107.7-232.7,192-284.7,192-16.3,0-22.9-7.8-25.7-14.4-9.2-22.3,14.2-64.4,49.7-109.5l8.8,15.4Z"/>
  <path class="st0" d="M116.7,288.1c-35.5,45.2-58.9,87.3-49.7,109.6,2.7,6.6,9.4,14.4,25.7,14.4,51.9,0,177-84.4,284.7-192.1,67.9-67.9,135.2-153,120.6-188.4-2.7-6.6-9.4-14.4-25.6-14.4-28.8,0-80.1,25.9-163.6,83.3l-8.9-15.4C383.4,27.7,434.7,1.8,463.5,1.8c16.3,0,22.9,7.8,25.7,14.4,14.6,35.4-52.7,120.5-120.6,188.4-107.7,107.7-232.7,192-284.7,192-16.3,0-22.9-7.8-25.7-14.4-9.2-22.3,14.2-64.4,49.7-109.5l8.8,15.4Z"/>
  <path class="st1" d="M291.7,126.3c12.7,0,22.9-10.3,22.9-23s-10.3-22.9-22.9-22.9-22.9,10.2-22.9,22.9c-.1,12.7,10.2,23,22.9,23"/>
  <path class="st1" d="M201.7,145.4c12.7,0,23-10.3,23-23s-10.3-22.9-23-22.9-22.9,10.3-22.9,22.9,10.3,23,22.9,23"/>
</svg>